# xmcd CD database file
#
# Track frame offsets:
#	187
#	18337
#	38605
#	58987
#
# Disc length: 1047 seconds
#
# Revision: 2
# Processed by: cddbd v1.4PL0 Copyright (c) Steve Scherf et al.
# Submitted via: CDex 1.40Beta9
#
DISCID=2b041504
DTITLE=New Kids On The Block - NKOTB
DYEAR=1900
DGENRE=
TTITLE0=If You Go Away
TTITLE1=Didn't I (Blow your mind)
TTITLE2=Please Don't Go Girl
TTITLE3=I'll Be Loving You (forever)
EXTD=
EXTT0=
EXTT1=
EXTT2=
EXTT3=
PLAYORDER=
